<?xml version="1.0" encoding="utf-8"?>
<!-- Generator: Adobe Illustrator 19.0.0, SVG Export Plug-In . SVG Version: 6.00 Build 0)  -->
<svg version="1.1" id="Layer_1" xmlns="http://www.w3.org/2000/svg" xmlns:xlink="http://www.w3.org/1999/xlink" x="0px" y="0px"
	 viewBox="0 0 265.6 99.7" style="enable-background:new 0 0 265.6 99.7;" xml:space="preserve">
<style type="text/css">
	.st0{fill:#0079BF;}
</style>
<g id="XMLID_1_">
	<g id="XMLID_172_">
		<g id="XMLID_110_">
			<path id="XMLID_113_" class="st0" d="M33.4,0.4c4-0.8,8.2-0.2,11.8,1.7c3.4,1.8,6.2,4.7,7.9,8.2c1.7,3.6,2.2,7.7,1.4,11.6
				c-0.9,4.4-3.6,8.3-7.2,10.8c-3.1,2.2-6.9,3.3-10.6,3.3c-7.2,0-14.3,0-21.5,0c-1.5,0-3-0.8-3.7-2.2c-0.7-1.2-0.7-2.7-0.1-3.9
				c0.6-1.2,1.8-2.1,3.2-2.3c1-0.2,2,0,3,0c4.8,0,9.7,0,14.5,0c1.4,0,2.8,0,4.2,0c2.4,0.1,4.9-0.6,6.7-2.2c2.1-1.7,3.4-4.4,3.5-7.1
				c0.1-2.7-1-5.4-3-7.2c-2.1-2-5.2-3-8.1-2.4c-2,0.3-4,1.2-5.2,2.9c-1.2,1.7-1.5,3.8-1.5,5.9c0,1.3-0.7,2.6-1.8,3.4
				c-1.3,0.9-3.1,1-4.5,0.2c-1.3-0.7-2.1-2.1-2.2-3.6c0-3.9,0.9-7.9,3.2-11C25.7,3.2,29.5,1.1,33.4,0.4z"/>
			<path id="XMLID_112_" class="st0" d="M70,16.7c3.4-0.5,6.9,0,10,1.4c4.1,1.8,7.5,5.3,9.2,9.4c1.2,2.9,1.7,6.1,1.3,9.2
				c-0.5,4.5-2.8,8.7-6.3,11.6c-3.1,2.6-7.2,4.2-11.3,4.2c-22.9,0-45.8,0-68.7,0c-1.5,0-3-1-3.7-2.3c-0.5-1.1-0.6-2.4-0.2-3.5
				C0.9,45.2,2.5,44,4.1,44c20.9,0,41.7,0,62.6,0c2,0,4.1,0,6.1,0c2.9,0,5.7-1.5,7.4-3.8c1.5-2,2.2-4.7,1.8-7.3
				c-0.5-2.9-2.4-5.5-5-6.9c-2-1.1-4.5-1.3-6.7-0.8c-1.8,0.4-3.6,1.4-4.6,3c-1.1,1.7-1.4,3.8-1.4,5.7c0,2-1.8,3.9-3.8,4
				c-2.2,0.3-4.4-1.5-4.6-3.8c-0.1-4.1,0.9-8.4,3.5-11.7C62,19.3,65.9,17.3,70,16.7z"/>
			<path id="XMLID_111_" class="st0" d="M23.7,62c0.7-1.3,2.1-2.2,3.6-2.3c15,0,30.1,0,45.1,0c3.5,0,7,1,9.9,2.8
				c3.4,2.2,6.1,5.6,7.4,9.5c1,3,1.2,6.3,0.5,9.5c-0.8,4-3.1,7.7-6.3,10.2c-2.6,2.1-5.9,3.5-9.2,3.9c-3.8,0.4-7.7-0.4-11-2.3
				c-2.7-1.6-4.9-3.9-6.2-6.8c-1.2-2.7-1.7-5.7-1.6-8.6c0.2-2.3,2.5-4,4.7-3.7c2,0.2,3.7,2,3.7,4.1c0,2,0.3,4.1,1.5,5.8
				c1.2,1.7,3.2,2.6,5.1,3c2.5,0.5,5.1-0.1,7.2-1.6c2-1.4,3.5-3.7,3.9-6.1c0.5-2.6-0.2-5.4-1.9-7.5c-1.6-2.1-4.1-3.4-6.7-3.6
				c-1.1-0.1-2.2,0-3.3,0c-0.6,0-1.1,0-1.7,0c-0.7,0-1.4,0-2.1,0c-4.7,0-9.4,0-14.1,0c-1.5,0-3,0-4.4,0c-1,0-2,0-3,0
				c-4.3,0-8.6,0-12.9,0c-1.5,0-3,0-4.4,0c-1.3,0-2.6-0.6-3.4-1.7C23.1,65.3,22.9,63.4,23.7,62z"/>
		</g>
	</g>
	<g id="XMLID_24_">
		<path id="XMLID_164_" class="st0" d="M163.8,67.1c2.7-1.4,5.8-1.5,8.8-1.1c2.7,0.4,5.4,1.8,7,4.1c2,2.7,2.7,6.1,2.5,9.4
			c-0.1,3.5-1.2,7.1-3.7,9.7c1.2,0.9,2.3,1.8,3.5,2.7c-0.6,0.7-1.2,1.4-1.7,2.1c-1.3-0.9-2.5-1.9-3.8-2.9c-0.2-0.2-0.4,0-0.6,0.1
			c-2.4,1.2-5.1,1.7-7.7,1.4c-3-0.2-5.9-1.5-7.8-3.9c-1.7-2.1-2.6-4.8-2.8-7.5c-0.3-2.9,0-5.8,1.2-8.5
			C159.7,70.5,161.4,68.3,163.8,67.1 M167.4,69.1c-2.3,0.5-4.3,2.1-5.2,4.2c-1.1,2.4-1.2,5.1-1.1,7.7c0.2,2.5,1.1,5,2.9,6.7
			c1.6,1.4,3.7,2,5.8,2c1.3,0,2.7-0.1,3.9-0.7c-0.8-0.8-1.9-1.5-2.8-2.3c0.6-0.7,1.2-1.4,1.7-2.1c1.1,0.8,2.2,1.7,3.4,2.6
			c0.9-1.1,1.6-2.4,2-3.8c0.7-2.7,0.9-5.5,0.2-8.2c-0.6-2.2-2-4.3-4-5.4C172.1,68.7,169.6,68.6,167.4,69.1z"/>
		<path id="XMLID_156_" class="st0" d="M103.5,92.1c3.2-8.5,6.4-17.1,9.6-25.6c1.3,0,2.6,0,3.9,0c3.1,8.5,6.1,17.1,9.2,25.6
			c-1.3,0-2.5,0-3.8,0c-0.9-2.6-1.8-5.2-2.7-7.8c-3.3,0-6.6,0-9.9,0c-0.9,2.6-1.9,5.2-2.8,7.8C105.9,92.1,104.7,92.1,103.5,92.1
			 M114.7,70.8c-1.3,3.6-2.6,7.2-3.8,10.7c2.6,0,5.3,0,7.9,0c-1.3-3.7-2.6-7.5-3.9-11.2C114.8,70.5,114.8,70.6,114.7,70.8z"/>
		<path id="XMLID_21_" class="st0" d="M128.8,66.4c1.1,0,2.1,0,3.2,0c0,1.1,0,2.3,0,3.4c-1.1,0-2.1,0-3.2,0
			C128.8,68.7,128.8,67.6,128.8,66.4z"/>
		<path id="XMLID_20_" class="st0" d="M225.2,66.4c1,0,2.1,0,3.1,0c0,8.5,0,17.1,0,25.6c-1,0-2.1,0-3.1,0
			C225.2,83.5,225.2,75,225.2,66.4z"/>
		<path id="XMLID_19_" class="st0" d="M232.9,66.4c1.1,0,2.1,0,3.2,0c0,1.1,0,2.3,0,3.4c-1.1,0-2.1,0-3.2,0
			C232.9,68.7,232.9,67.6,232.9,66.4z"/>
		<path id="XMLID_18_" class="st0" d="M241.4,68.3c1,0,2.1,0,3.1,0c0,1.7,0,3.4,0,5.1c1,0,2,0,3,0c0,0.9,0,1.8,0,2.7c-1,0-2,0-3,0
			c0,4,0,8.1,0,12.1c0,0.5,0.2,1.1,0.7,1.3c0.7,0.3,1.5,0.2,2.3,0.1c0,0.9,0,1.7,0,2.6c-1.2,0.4-2.5,0.4-3.8,0.2
			c-0.7-0.2-1.4-0.6-1.8-1.3c-0.5-0.8-0.6-1.8-0.6-2.7c0-4.1,0-8.2,0-12.2c-0.8,0-1.7,0-2.5,0c0-0.9,0-1.8,0-2.7c0.8,0,1.7,0,2.5,0
			C241.4,71.7,241.4,70,241.4,68.3z"/>
		<path id="XMLID_17_" class="st0" d="M143,73.4c0.9-0.4,1.8-0.4,2.8-0.2c0,1.1,0,2.1,0,3.2c-1.4-0.3-3.1,0-4.2,1
			c-1.1,1-1.7,2.5-1.7,4c0,3.6,0,7.2,0,10.7c-1,0-2.1,0-3.1,0c0-6.2,0-12.5,0-18.7c1,0,2,0,2.9,0c0,1,0,2.1,0,3.1
			C140.5,75.2,141.6,74,143,73.4z"/>
		<path id="XMLID_133_" class="st0" d="M207.4,74.6c1.6-1.2,3.6-1.7,5.6-1.7c1.9,0,4,0.4,5.5,1.6c1.1,0.8,1.6,2.2,1.6,3.5
			c0,3.6,0,7.2,0,10.8c0,0.4,0.1,0.8,0.4,1c0.5,0.2,1.1,0.1,1.6,0c0,0.8,0,1.6,0,2.4c-1.2,0.3-2.5,0.5-3.6-0.1
			c-0.9-0.5-1.2-1.6-1.4-2.5c-1.9,2.4-5.3,3.6-8.3,2.9c-2-0.5-3.7-2.1-4.1-4.2c-0.2-1.3-0.1-2.7,0.5-3.9c0.8-1.5,2.4-2.4,3.9-2.8
			c1.9-0.4,3.8-0.5,5.7-0.8c0.8,0,1.7-0.3,2-1.1c0.3-1.1,0.2-2.4-0.6-3.2c-0.8-0.7-1.9-0.9-2.9-1c-1.3-0.1-2.7,0-3.7,0.9
			c-0.8,0.6-1,1.7-1.1,2.6c-1,0-2,0-2.9,0C205.6,77.5,206,75.7,207.4,74.6 M209.4,84.5c-1.8,0.8-2.1,3.6-0.5,4.8
			c1.1,0.9,2.6,0.9,3.9,0.6c1.5-0.4,3-1.2,3.7-2.6c0.7-1.4,0.4-3.1,0.4-4.6C214.6,84,211.8,83.4,209.4,84.5z"/>
		<path id="XMLID_14_" class="st0" d="M185.8,73.4c1.1,0,2.1,0,3.2,0c0,4.2,0,8.5,0,12.7c0,1.1,0.2,2.4,1.1,3.1
			c0.9,0.9,2.3,0.9,3.5,0.7c1.1-0.2,2.1-0.9,2.7-1.9c0.8-1.4,1-3,1.1-4.5c0-3.4,0-6.8,0-10.1c1,0,2.1,0,3.1,0c0,5.2,0,10.3,0,15.5
			c0,1.1,0,2.1,0,3.2c-1,0-2,0-3,0c0-0.8,0-1.7,0-2.5c-1,1.8-2.9,2.9-4.9,3.1c-1.6,0.1-3.2,0-4.6-0.9c-1.1-0.7-1.9-2-2.1-3.3
			c-0.3-1.5-0.2-3-0.2-4.4C185.8,80.5,185.8,77,185.8,73.4z"/>
		<path id="XMLID_13_" class="st0" d="M248.7,73.4c1.2,0,2.4,0,3.5,0c1.6,5.1,3.3,10.2,4.9,15.3c1.7-5.1,3.3-10.2,5-15.3
			c1.1,0,2.3,0,3.4,0c-1.9,5.1-3.6,10.3-5.5,15.4c-1.1,3-2.2,6-3.7,8.8c-0.6,1.3-2.1,1.9-3.4,2.1h-1.3c-0.4,0-0.9-0.1-1.3-0.2
			c0-0.9,0-1.9,0-2.8c0.8,0.2,1.6,0.4,2.5,0.3c0.7-0.1,1.2-0.7,1.5-1.3c0.4-1,0.8-2,1.2-2.9C253.3,86.2,251,79.8,248.7,73.4z"/>
		<path id="XMLID_12_" class="st0" d="M128.8,73.5c1.1,0,2.1,0,3.2,0c0,6.2,0,12.4,0,18.6c-1.1,0-2.1,0-3.2,0
			C128.8,85.9,128.8,79.7,128.8,73.5z"/>
		<path id="XMLID_11_" class="st0" d="M232.9,73.5c1.1,0,2.1,0,3.2,0c0,6.2,0,12.4,0,18.6c-1.1,0-2.1,0-3.2,0
			C232.9,85.9,232.9,79.7,232.9,73.5z"/>
		<g id="XMLID_3_">
			<path id="XMLID_10_" class="st0" d="M137.1,12.2c2.4,0,4.9,0,7.3,0c0,2.2,0,4.4,0,6.5c-2.4,0-4.9,0-7.3,0
				C137.1,16.6,137.1,14.4,137.1,12.2z"/>
			<path id="XMLID_93_" class="st0" d="M226.8,12.5c2.4,0,4.9,0,7.3,0c0,12.5,0,25.1,0,37.6c-2.3,0-4.7,0-7,0c0-1.2,0-2.4,0-3.6
				c-1.2,1.9-2.9,3.5-5,4.2c-2.9,0.8-6.1,0.6-8.7-1c-2.6-1.6-4.5-4.3-5.4-7.2c-0.9-2.8-0.9-5.8-0.6-8.7c0.4-3.5,1.7-7.1,4.4-9.5
				c2.5-2.3,6.2-3.1,9.5-2.5c2.3,0.5,4.2,2,5.5,3.9C226.9,21.3,226.8,16.9,226.8,12.5 M220.1,28c-1.4,0.1-2.8,0.8-3.6,2
				c-1.4,1.9-1.8,4.3-1.8,6.6c0,2.2,0.4,4.5,1.6,6.4c2,3,7.1,2.9,9-0.1c1.4-1.9,1.7-4.4,1.6-6.7c-0.1-2.1-0.5-4.4-1.8-6.1
				C224,28.5,222,27.8,220.1,28z"/>
			<path id="XMLID_7_" class="st0" d="M240.7,12.5c2.4,0,4.8,0,7.2,0c0,4.4,0,8.9,0,13.3c0.9-1.3,2-2.5,3.4-3.2
				c2.7-1.3,5.8-1.3,8.6-0.4c2.5,0.8,4.5,2.9,5.2,5.5c0.4,1.5,0.3,3,0.4,4.6c0.1,5.9,0,11.9,0,17.8c-2.5,0-4.9,0-7.4,0
				c0-5.6,0-11.2,0-16.9c0-1.5-0.2-3.1-1.1-4.3c-0.8-1-2.1-1.4-3.4-1.4c-1.5,0-3.1,0.5-4.1,1.6c-1.3,1.5-1.7,3.6-1.7,5.5
				c0,5.1,0,10.3,0,15.4c-2.4,0-4.8,0-7.2,0C240.7,37.6,240.7,25,240.7,12.5z"/>
			<path id="XMLID_47_" class="st0" d="M181.9,24.4c1.8-1.7,4.3-2.5,6.7-2.7c3.7-0.4,7.6,0,10.9,1.8c1.6,0.9,2.6,2.5,2.9,4.2
				c0.4,1.8,0.2,3.7,0.2,5.5c0,3.6,0,7.2,0,10.8c0,1.2,0,2.5,0.2,3.7c0.1,0.7,0.7,1.1,1.3,1.5c0,0.2,0,0.7,0,0.9c-2.6,0-5.2,0-7.8,0
				c-0.4-1-0.5-2.1-0.7-3.2c-1.8,1.9-4,3.5-6.6,4c-2.8,0.5-5.9,0.1-8.1-1.7c-2.8-2.2-3.2-6.4-2.3-9.6c0.6-2.1,2.3-3.9,4.3-4.7
				c2.7-1.2,5.6-1.4,8.5-1.8c1.2-0.2,2.5-0.3,3.4-1.2c0.9-0.8,0.8-2.2,0.2-3.2c-0.7-1-2-1.2-3.1-1.3c-1.4-0.1-2.9-0.1-4.1,0.6
				c-1.1,0.6-1.5,1.9-1.7,3.1c-2.3,0-4.6,0-6.9,0C179.3,28.6,180.1,26.1,181.9,24.4 M195.4,36.5c-2.4,1.6-5.4,1.2-7.9,2.4
				c-1.1,0.5-2,1.7-2,3c-0.1,1.1,0.1,2.5,1.1,3.2c1.3,1,3.1,0.9,4.6,0.4c1.4-0.5,2.9-1.3,3.5-2.7C195.6,40.8,195.4,38.6,195.4,36.5z
				"/>
			<path id="XMLID_4_" class="st0" d="M137.1,22.3c2.4,0,4.9,0,7.3,0c0,9.3,0,18.6,0,27.9c-2.4,0-4.9,0-7.3,0
				C137.2,40.8,137.1,31.5,137.1,22.3z"/>
			<path id="XMLID_22_" class="st0" d="M148.6,22.3c2.7,0,5.4,0,8,0c2,6.8,4,13.7,6,20.5c1.9-6.8,3.8-13.7,5.7-20.5
				c2.6-0.1,5.1,0,7.7,0c-3.5,9.9-6.8,19.9-10.3,29.8c-0.9,2.4-1.8,4.9-3.2,7.1c-1,1.6-3,2-4.7,2.2c-1.7,0.2-3.5,0.1-5.2,0
				c0-1.9,0-3.8,0-5.7c1.5,0.1,3.3,0.3,4.6-0.7c0.8-0.8,1.1-1.9,1.5-2.9c0.3-0.7-0.1-1.4-0.3-2C155,40.8,151.8,31.5,148.6,22.3z"/>
			<g id="XMLID_23_">
				<path id="XMLID_27_" class="st0" d="M117.5,36.3h-6.2v13.8h-7.8V12.4h14c4.5,0,7.9,1,10.3,3c2.4,2,3.6,4.8,3.6,8.4
					c0,2.6-0.6,4.7-1.7,6.4c-1.1,1.7-2.8,3.1-5.1,4.1l8.2,15.4v0.4h-8.3L117.5,36.3z M111.3,30h6.3c2,0,3.5-0.5,4.5-1.5
					c1.1-1,1.6-2.4,1.6-4.1c0-1.8-0.5-3.2-1.5-4.2c-1-1-2.6-1.5-4.7-1.5h-6.2V30z"/>
			</g>
		</g>
	</g>
</g>
</svg>
