<svg xmlns="http://www.w3.org/2000/svg" width="172" height="297.296" viewBox="0 0 172 297.296">
  <g id="Group_433" data-name="Group 433" transform="translate(-903.636 -206.704)">
    <g id="Group_432" data-name="Group 432" transform="translate(905.285 206.704)">
      <g id="Group_1" data-name="Group 1" transform="translate(0 31.472)">
        <path id="Path_2" data-name="Path 2" d="M975.19,568.564a23.149,23.149,0,0,0-7.654-6.73,22.69,22.69,0,0,0-23.2,1.1l-.8-1.117V529.262a25.719,25.719,0,0,0-25.718-25.72h0a4.667,4.667,0,0,0-4.666,4.666v66.977a20.658,20.658,0,0,0,2.944,10.629l27.384,45.639a.4.4,0,0,1,.057.205v11.4a2.28,2.28,0,0,0,2.28,2.28h43.75a4.611,4.611,0,0,0,4.612-4.61v-38.68a24.5,24.5,0,0,0-4.9-14.7Zm4.246,66.645H955.944a2.28,2.28,0,0,1-2.28-2.28v-4.076a.4.4,0,0,0-.057-.205l-27.384-45.639a20.664,20.664,0,0,1-2.943-10.63V517.97a2.138,2.138,0,0,1,3.348-1.752,15.188,15.188,0,0,1,6.78,12.645v32.822a10.549,10.549,0,0,0,1.965,6.131l21.355,29.9a5.063,5.063,0,0,0,7.064,1.177h0a5.063,5.063,0,0,0,1.178-7.064l-14.487-20.281a.411.411,0,0,1,.123-.589,12.551,12.551,0,0,1,12.376-.059A12.844,12.844,0,0,1,967,574.528l12.144,16.193a24.5,24.5,0,0,1,4.9,14.7V630.6A4.611,4.611,0,0,1,979.437,635.209Z" transform="translate(-913.151 -503.542)" fill="#fff"/>
        <path id="Path_3" data-name="Path 3" d="M993.411,587.344a24.5,24.5,0,0,0-4.9,14.7v38.68a4.61,4.61,0,0,0,4.61,4.61h43.75a2.28,2.28,0,0,0,2.28-2.28v-11.4a.4.4,0,0,1,.057-.205l27.384-45.639a20.659,20.659,0,0,0,2.944-10.629V508.208a4.667,4.667,0,0,0-4.666-4.666h0a25.719,25.719,0,0,0-25.718,25.72v32.557l-.8,1.117a22.688,22.688,0,0,0-23.2-1.1,23.139,23.139,0,0,0-7.655,6.73Zm5.227,43.254V605.423a24.5,24.5,0,0,1,4.9-14.7l12.144-16.193a12.849,12.849,0,0,1,4.022-3.631,12.552,12.552,0,0,1,12.376.059.41.41,0,0,1,.124.589l-14.487,20.281a5.064,5.064,0,0,0,1.178,7.064h0a5.063,5.063,0,0,0,7.064-1.177l21.354-29.9a10.546,10.546,0,0,0,1.966-6.131V528.863a15.188,15.188,0,0,1,6.779-12.645,2.138,2.138,0,0,1,3.348,1.752v54.408a20.663,20.663,0,0,1-2.944,10.63l-27.384,45.639a.391.391,0,0,0-.057.205v4.076a2.279,2.279,0,0,1-2.28,2.28H1003.25A4.611,4.611,0,0,1,998.638,630.6Z" transform="translate(-899.758 -503.542)" fill="#fff"/>
      </g>
      <path id="Path_4" data-name="Path 4" d="M1025.626,533.7c0-19.217-18.7-36.36-35.244-46.287a.394.394,0,0,0-.41,0c-16.546,9.926-35.244,27.078-35.244,46.287,0,21.035,22.375,37.9,30.217,43.171a.38.38,0,0,1,.167.325v11.811a.4.4,0,0,0,.4.4h9.331a.4.4,0,0,0,.4-.4V577.2a.379.379,0,0,1,.168-.325C1003.252,571.607,1025.626,554.738,1025.626,533.7Zm-60.769,0c0-15.518,18.037-29.456,25.114-34.327a.361.361,0,0,1,.421,0,91.454,91.454,0,0,1,11.46,9.325c6.225,6.007,13.645,15.221,13.645,25,0,12.331-11.387,23.662-19.617,30.242a.4.4,0,0,1-.639-.322V513.844a.4.4,0,0,0-.4-.4h-9.331a.4.4,0,0,0-.4.4v49.779a.4.4,0,0,1-.644.32C975.285,556.574,964.858,545.32,964.858,533.7Z" transform="translate(-905.289 -487.358)" fill="#fff"/>
    </g>
    <text id="Riyadh" transform="translate(989.636 466)" fill="#fff" font-size="57" font-family="Roboto-Regular, Roboto"><tspan x="-85.222" y="0">Riyadh</tspan></text>
    <text id="Environment_Friends" data-name="Environment Friends" transform="translate(989.636 499)" fill="#fff" font-size="17" font-family="Roboto-Regular, Roboto"><tspan x="-77.455" y="0">Environment Friends</tspan></text>
  </g>
</svg>
