<svg xmlns="http://www.w3.org/2000/svg" width="155" height="55" viewBox="0 0 155 55">
  <g id="Group_7" data-name="Group 7" transform="translate(158.352 -1247.017)">
    <g id="Group_5" data-name="Group 5" transform="translate(-158.352 1255.704)">
      <g id="Group_1" data-name="Group 1" transform="translate(0 8.231)">
        <path id="Path_2" data-name="Path 2" d="M929.376,520.546a6.053,6.053,0,0,0-2-1.76,5.934,5.934,0,0,0-6.068.288l-.209-.292v-8.514a6.726,6.726,0,0,0-6.726-6.726h0a1.22,1.22,0,0,0-1.22,1.22v17.516a5.4,5.4,0,0,0,.77,2.78l7.161,11.935a.1.1,0,0,1,.015.054v2.981a.6.6,0,0,0,.6.6h11.442a1.206,1.206,0,0,0,1.206-1.206V529.3a6.408,6.408,0,0,0-1.282-3.845Zm1.11,17.429h-6.144a.6.6,0,0,1-.6-.6v-1.066a.1.1,0,0,0-.015-.054l-7.161-11.936a5.4,5.4,0,0,1-.77-2.78V507.315a.559.559,0,0,1,.875-.458,3.972,3.972,0,0,1,1.773,3.307v8.584a2.759,2.759,0,0,0,.514,1.6l5.585,7.819a1.324,1.324,0,0,0,1.847.308h0a1.324,1.324,0,0,0,.308-1.847l-3.789-5.3a.107.107,0,0,1,.032-.154,3.282,3.282,0,0,1,3.236-.015,3.358,3.358,0,0,1,1.052.95l3.176,4.235a6.408,6.408,0,0,1,1.282,3.845v6.584A1.206,1.206,0,0,1,930.486,537.975Z" transform="translate(-913.151 -503.542)" fill="#3db34c"/>
        <path id="Path_3" data-name="Path 3" d="M989.792,525.458a6.408,6.408,0,0,0-1.281,3.845v10.116a1.206,1.206,0,0,0,1.206,1.206h11.442a.6.6,0,0,0,.6-.6v-2.981a.1.1,0,0,1,.015-.054l7.161-11.935a5.4,5.4,0,0,0,.77-2.78V504.762a1.22,1.22,0,0,0-1.22-1.22h0a6.726,6.726,0,0,0-6.726,6.726v8.514l-.209.292a5.933,5.933,0,0,0-6.068-.288,6.05,6.05,0,0,0-2,1.76Zm1.367,11.312v-6.584a6.408,6.408,0,0,1,1.282-3.845l3.176-4.235a3.362,3.362,0,0,1,1.052-.95,3.283,3.283,0,0,1,3.237.015.107.107,0,0,1,.032.154l-3.789,5.3a1.324,1.324,0,0,0,.308,1.847h0a1.324,1.324,0,0,0,1.847-.308l5.585-7.819a2.758,2.758,0,0,0,.514-1.6v-8.584a3.972,3.972,0,0,1,1.773-3.307.559.559,0,0,1,.876.458v14.229a5.4,5.4,0,0,1-.77,2.78l-7.161,11.936a.1.1,0,0,0-.015.054v1.066a.6.6,0,0,1-.6.6h-6.144A1.206,1.206,0,0,1,991.16,536.77Z" transform="translate(-965.3 -503.542)" fill="#3db34c"/>
      </g>
      <path id="Path_4" data-name="Path 4" d="M973.27,499.478c0-5.026-4.89-9.509-9.217-12.1a.1.1,0,0,0-.107,0c-4.327,2.6-9.217,7.081-9.217,12.1,0,5.5,5.852,9.913,7.9,11.29a.1.1,0,0,1,.044.085v3.089a.1.1,0,0,0,.1.1h2.44a.1.1,0,0,0,.1-.1v-3.089a.1.1,0,0,1,.044-.085C967.419,509.391,973.27,504.979,973.27,499.478Zm-15.892,0c0-4.058,4.717-7.7,6.568-8.977a.094.094,0,0,1,.11,0,23.911,23.911,0,0,1,3,2.439c1.628,1.571,3.568,3.981,3.568,6.539,0,3.225-2.978,6.188-5.13,7.909a.1.1,0,0,1-.167-.084V494.284a.1.1,0,0,0-.1-.1h-2.44a.1.1,0,0,0-.1.1V507.3a.1.1,0,0,1-.169.084C960.1,505.459,957.378,502.516,957.378,499.478Z" transform="translate(-941.799 -487.358)" fill="#3db34c"/>
    </g>
    <text id="Riyadh" transform="translate(-53.352 1282.017)" fill="#717171" font-size="33" font-family="Roboto-Regular, Roboto"><tspan x="-49.339" y="0">Riyadh</tspan></text>
    <text id="Environment_Friends" data-name="Environment Friends" transform="translate(-55.352 1299.017)" fill="#717171" font-size="10" font-family="Roboto-Regular, Roboto"><tspan x="-45.562" y="0">Environment Friends</tspan></text>
  </g>
</svg>
