<svg id="Layer_1" data-name="Layer 1" xmlns="http://www.w3.org/2000/svg" viewBox="0 0 245.87 101.28"><defs><style>.cls-1{fill:#0079bf;}</style></defs><title>جودة الهواء</title><path class="cls-1" d="M185.18,1.76a18.46,18.46,0,0,1,12.15,1.75A18.71,18.71,0,0,1,206.9,23.9,18.21,18.21,0,0,1,199.49,35a19,19,0,0,1-10.91,3.39H166.44a4.37,4.37,0,0,1-3.91-6.28,4.4,4.4,0,0,1,3.3-2.36,15.1,15.1,0,0,1,3.08,0h19.25a9.81,9.81,0,0,0,6.9-2.27,10.09,10.09,0,0,0,3.61-7.31,9.74,9.74,0,0,0-11.43-9.88,7.88,7.88,0,0,0-5.36,3,10.38,10.38,0,0,0-1.54,6.08,4.32,4.32,0,0,1-6.48,3.7,4.51,4.51,0,0,1-2.27-3.7A19.06,19.06,0,0,1,174.88,8,16,16,0,0,1,185.18,1.76Z"/><path class="cls-1" d="M222.86,18.54A18.56,18.56,0,0,1,244,39.13a18.24,18.24,0,0,1-6.48,11.95,18.51,18.51,0,0,1-11.64,4.32H155.12A4.55,4.55,0,0,1,151.31,53a4.89,4.89,0,0,1-.21-3.6A4.49,4.49,0,0,1,155,46.65h70.72a9.67,9.67,0,0,0,7.62-3.91,9.81,9.81,0,0,0-3.3-14.62,10,10,0,0,0-6.89-.82,7.46,7.46,0,0,0-4.74,3.08A10.85,10.85,0,0,0,217,36.25a4.34,4.34,0,0,1-8.65.21,18.74,18.74,0,0,1,3.61-12A17.63,17.63,0,0,1,222.86,18.54Z"/><path class="cls-1" d="M175.19,65.18a4.62,4.62,0,0,1,3.71-2.37h46.43a19.57,19.57,0,0,1,10.19,2.88,19,19,0,0,1,7.62,9.78,18.51,18.51,0,0,1,.51,9.78,18,18,0,0,1-6.48,10.5,18.27,18.27,0,0,1-20.8,1.65,15.57,15.57,0,0,1-6.38-7,20.21,20.21,0,0,1-1.65-8.85,4.38,4.38,0,0,1,4.84-3.81A4.32,4.32,0,0,1,217,82a10.23,10.23,0,0,0,1.54,6A8.45,8.45,0,0,0,223.78,91a9.57,9.57,0,0,0,7.42-1.65,9.88,9.88,0,0,0,4-6.28,9.52,9.52,0,0,0-2-7.72,9.66,9.66,0,0,0-6.9-3.7c-1.13-.11-2.27,0-3.4,0H179.11a4.34,4.34,0,0,1-3.5-1.75A4.42,4.42,0,0,1,175.19,65.18Z"/><path class="cls-1" d="M42,57a25.06,25.06,0,0,0-6.3.78,33.74,33.74,0,0,0-5.57,1.95V58a.49.49,0,0,0-.56-.55H22.84a.49.49,0,0,0-.56.55V79.84q0,3.41-1.62,5a6,6,0,0,1-4.45,1.61,7.65,7.65,0,0,1-2.32-.36,5.45,5.45,0,0,1-2.06-1.2,6,6,0,0,1-1.48-2.17,8.61,8.61,0,0,1-.55-3.29,13.42,13.42,0,0,1,.67-4.4,27.77,27.77,0,0,1,1.44-3.51.67.67,0,0,0,.09-.42c0-.13-.12-.23-.31-.31l-6-2c-.41-.11-.69,0-.83.17a19.91,19.91,0,0,0-2.26,5.29,21.71,21.71,0,0,0-.81,5.74,14.68,14.68,0,0,0,1.14,6A11,11,0,0,0,6,90.23a12.82,12.82,0,0,0,4.54,2.35,19.68,19.68,0,0,0,5.49.75,20.1,20.1,0,0,0,5.35-.7,12.48,12.48,0,0,0,4.37-2.14,10.64,10.64,0,0,0,3-3.77,14.07,14.07,0,0,0,1.31-5.54c.71.07,1.43.13,2.18.16s1.5.06,2.28.06h9.59A28.66,28.66,0,0,0,49.62,81a7.58,7.58,0,0,0,3.65-1.67,6.9,6.9,0,0,0,2-3.37,20.59,20.59,0,0,0,.62-5.54q0-6.91-3.54-10.15T42,57Zm5.43,15.58a2.33,2.33,0,0,1-1,1.39,4.43,4.43,0,0,1-2,.59c-.86.07-2,.11-3.34.11h-11V66.24A42.08,42.08,0,0,1,35,64.51a20,20,0,0,1,5.55-.78,13.36,13.36,0,0,1,3.48.39,4.94,4.94,0,0,1,2.18,1.2,4.55,4.55,0,0,1,1.14,2A9.88,9.88,0,0,1,47.69,70,10.28,10.28,0,0,1,47.44,72.57Z"/><rect class="cls-1" x="36.83" y="45.73" width="8.02" height="6.58" rx="0.56"/><path class="cls-1" d="M81.34,81.4q3.5,0,5-1.7c1-1.13,1.5-2.91,1.5-5.32V58.5a.49.49,0,0,0-.56-.56H80.57a.49.49,0,0,0-.56.56V71.7A3.25,3.25,0,0,1,79.37,74a2.79,2.79,0,0,1-2,.64h-5a2.82,2.82,0,0,1-2-.64,3.25,3.25,0,0,1-.64-2.32V44.06a.49.49,0,0,0-.55-.56H62.4a.49.49,0,0,0-.55.56V74.38c0,2.41.49,4.19,1.49,5.32s2.66,1.7,5,1.7h13Z"/><rect class="cls-1" x="75.39" y="86.25" width="6.69" height="6.58" rx="0.56"/><rect class="cls-1" x="83.97" y="86.25" width="6.74" height="6.58" rx="0.56"/><path class="cls-1" d="M123.15,43.5h-6.8a.5.5,0,0,0-.56.56V71.7a3.25,3.25,0,0,1-.64,2.32,2.81,2.81,0,0,1-2,.64h-3.18a5,5,0,0,1-3-.81,2.9,2.9,0,0,1-1.19-2.2V58.5a.49.49,0,0,0-.56-.56h-6.8a.49.49,0,0,0-.56.56V78.89c0,1.15,0,2.18-.11,3.07a6.65,6.65,0,0,1-.53,2.25,3,3,0,0,1-1.25,1.4,4.87,4.87,0,0,1-2.34.47H92.33a.5.5,0,0,0-.56.56v5.63a.49.49,0,0,0,.56.55h2.56q5.91,0,8.36-3t2.46-9.39v-.89A4.35,4.35,0,0,0,108,81a12.32,12.32,0,0,0,3.18.36h6q3.51,0,5-1.7c1-1.13,1.51-2.91,1.51-5.32V44.06A.5.5,0,0,0,123.15,43.5Z"/><path class="cls-1" d="M137.64,43.5H131a.5.5,0,0,0-.56.56V80.84a.49.49,0,0,0,.56.56h6.69a.49.49,0,0,0,.55-.56V44.06A.49.49,0,0,0,137.64,43.5Z"/><path class="cls-1" d="M13.42,29.5H7.61a5.64,5.64,0,0,1-1.19-1.38A3.81,3.81,0,0,1,5.82,26a3.39,3.39,0,0,1,.75-2.2,2.76,2.76,0,0,1,2.28-.94,3.3,3.3,0,0,1,1.54.35,4.89,4.89,0,0,1,1.17.85c.16.16.36.15.59,0l1.17-1a1.4,1.4,0,0,0,.12-.18c0-.07,0-.19-.12-.35A4.2,4.2,0,0,0,11.49,21,6.11,6.11,0,0,0,9,20.45,6,6,0,0,0,6.24,21a5.11,5.11,0,0,0-1.76,1.38,5.21,5.21,0,0,0-1,1.8A6.55,6.55,0,0,0,3.25,26,6.83,6.83,0,0,0,3.51,28a5.91,5.91,0,0,0,.72,1.54H2.12c-.23,0-.35.12-.35.38V31.5c0,.26.12.39.35.39h11.3c.24,0,.35-.13.35-.39V29.88C13.77,29.62,13.66,29.5,13.42,29.5Z"/><rect class="cls-1" x="17.12" y="7.95" width="2.96" height="23.93" rx="0.35"/><path class="cls-1" d="M57.87,19.29a7.38,7.38,0,0,0-2.7-2.11,10,10,0,0,0-4.33-.81,13.82,13.82,0,0,0-3.58.49,11.7,11.7,0,0,0-3.46,1.55c-.14.09-.14.27,0,.53l1,1.65a.16.16,0,0,0,.21.09l.28-.12A10.52,10.52,0,0,1,48,19.43a10.71,10.71,0,0,1,2.5-.32,7.05,7.05,0,0,1,2.85.51A4.92,4.92,0,0,1,55.2,21a5.27,5.27,0,0,1,1,2,9,9,0,0,1,.3,2.33,14.21,14.21,0,0,1-.1,1.9A2.41,2.41,0,0,1,56,28.37a1.7,1.7,0,0,1-.91.6,6.13,6.13,0,0,1-1.58.17H53a5.72,5.72,0,0,0,.49-2.46,6.31,6.31,0,0,0-.35-2.2,4.43,4.43,0,0,0-1-1.57A4,4,0,0,0,50.69,22a5.07,5.07,0,0,0-1.79-.31,4.58,4.58,0,0,0-3.29,1.26,5,5,0,0,0-1.32,3.77,5.72,5.72,0,0,0,.49,2.46H37.92V24.53q0-4.05-1.76-5.86a6.51,6.51,0,0,0-4.89-1.81,7.32,7.32,0,0,0-2.61.47,5.92,5.92,0,0,0-2.16,1.45A6.65,6.65,0,0,0,25,21.24a10.09,10.09,0,0,0-.55,3.5,10.62,10.62,0,0,0,.46,3.38,5,5,0,0,0,3.47,3.4,9.69,9.69,0,0,0,2.8.37H35v.91a4.77,4.77,0,0,1-.24,1.64,2.49,2.49,0,0,1-.69,1A2.63,2.63,0,0,1,33,36a5.32,5.32,0,0,1-1.3.16H27.46a.31.31,0,0,0-.35.35v2a.31.31,0,0,0,.35.35h4.37a8.21,8.21,0,0,0,2.5-.35,4.91,4.91,0,0,0,1.92-1.09,5.13,5.13,0,0,0,1.23-1.9,8.07,8.07,0,0,0,.44-2.82v-.84H54.59a7.66,7.66,0,0,0,2.29-.3,3.17,3.17,0,0,0,1.57-1.06,5,5,0,0,0,.92-2,14.18,14.18,0,0,0,.3-3.2,13.1,13.1,0,0,0-.39-3.14A7.6,7.6,0,0,0,57.87,19.29ZM35,29.14H31.41a4.15,4.15,0,0,1-3-.95c-.67-.63-1-1.78-1-3.45a6.15,6.15,0,0,1,1-3.73,3.29,3.29,0,0,1,2.8-1.41,3.15,3.15,0,0,1,2.83,1.31A6.55,6.55,0,0,1,35,24.53Zm15.49-.65a1.8,1.8,0,0,1-1.37.65h-.39a1.85,1.85,0,0,1-1.37-.65,2.74,2.74,0,0,1-.5-1.81,2.78,2.78,0,0,1,.55-1.85,1.89,1.89,0,0,1,1.53-.65,1.8,1.8,0,0,1,1.5.65,3,3,0,0,1,.51,1.85A2.93,2.93,0,0,1,50.45,28.49Z"/><rect class="cls-1" x="78.92" y="10.73" width="3.1" height="3.27" rx="0.35"/><rect class="cls-1" x="74.63" y="10.73" width="3.1" height="3.27" rx="0.35"/><path class="cls-1" d="M78.32,16.86a6.6,6.6,0,0,0-4.92,1.81q-1.8,1.81-1.8,5.86c0,2.68.6,4.61,1.8,5.81a6.63,6.63,0,0,0,4.92,1.8,8.18,8.18,0,0,0,2.8-.45,5.12,5.12,0,0,0,2.11-1.35A6.09,6.09,0,0,0,84.57,28a11,11,0,0,0,.48-3.45q0-4.05-1.8-5.86A6.61,6.61,0,0,0,78.32,16.86Zm2.87,11.37a4.12,4.12,0,0,1-5.73,0,6.08,6.08,0,0,1-.9-3.7,6.29,6.29,0,0,1,.9-3.62,3.79,3.79,0,0,1,5.73,0,6.29,6.29,0,0,1,.9,3.62A6.08,6.08,0,0,1,81.19,28.23Z"/><path class="cls-1" d="M96.17,16.86H91a.32.32,0,0,0-.36.35v2c0,.24.12.35.36.35h4.08q4,0,4,3.56V26a9,9,0,0,1-.1,1.51,2.12,2.12,0,0,1-.43,1,1.81,1.81,0,0,1-.91.53,6.79,6.79,0,0,1-1.59.15H89.34a.32.32,0,0,0-.35.36v2a.31.31,0,0,0,.35.35h7.81a8.13,8.13,0,0,0,2.3-.28,3.33,3.33,0,0,0,1.58-1,4.35,4.35,0,0,0,.93-1.85,11.91,11.91,0,0,0,.3-2.92V23.12a6,6,0,0,0-1.71-4.75A6.36,6.36,0,0,0,96.17,16.86Z"/><rect class="cls-1" x="129.25" y="35.09" width="3.1" height="3.27" rx="0.35"/><path class="cls-1" d="M137.84,22.46a7.64,7.64,0,0,0-1.26-2.86,6.57,6.57,0,0,0-2.46-2,9.05,9.05,0,0,0-4-.76,7.32,7.32,0,0,0-3.58.81,8.1,8.1,0,0,0-2.44,2c-.14.16-.11.33.1.49l1.55,1.27a.32.32,0,0,0,.49,0A5.92,5.92,0,0,1,128,20.1a4.9,4.9,0,0,1,2.2-.5,5.31,5.31,0,0,1,2.29.44A3.67,3.67,0,0,1,134,21.31a5.73,5.73,0,0,1,.79,2A11.64,11.64,0,0,1,135,25.8a10.19,10.19,0,0,1-.11,1.6,2.15,2.15,0,0,1-.42,1,1.73,1.73,0,0,1-.92.55,6.64,6.64,0,0,1-1.58.15H119.54V24.53q0-4.05-1.76-5.86a6.48,6.48,0,0,0-4.89-1.81,7.32,7.32,0,0,0-2.61.47,5.92,5.92,0,0,0-2.16,1.45,6.79,6.79,0,0,0-1.48,2.46,10.34,10.34,0,0,0-.54,3.5,10.93,10.93,0,0,0,.45,3.38,5.19,5.19,0,0,0,1.34,2.2,5.32,5.32,0,0,0,2.13,1.2,9.74,9.74,0,0,0,2.8.37h3.76v.91a4.77,4.77,0,0,1-.24,1.64,2.49,2.49,0,0,1-.69,1,2.63,2.63,0,0,1-1,.53,5.32,5.32,0,0,1-1.3.16h-4.22c-.24,0-.36.11-.36.35v2c0,.24.12.35.36.35h4.36a8.17,8.17,0,0,0,2.5-.35,4.7,4.7,0,0,0,3.15-3,8.07,8.07,0,0,0,.44-2.82v-.84h13.55a7.78,7.78,0,0,0,2.28-.3,3.45,3.45,0,0,0,1.6-1,4.49,4.49,0,0,0,.92-1.87,11.91,11.91,0,0,0,.3-2.92A15.33,15.33,0,0,0,137.84,22.46Zm-21.26,6.68H113a4.15,4.15,0,0,1-3-.95,4.71,4.71,0,0,1-1-3.45,6.15,6.15,0,0,1,1-3.73,3.29,3.29,0,0,1,2.8-1.41,3.14,3.14,0,0,1,2.83,1.31,6.46,6.46,0,0,1,.86,3.62Z"/></svg>